<svg width="24" height="24" viewBox="0 0 24 24" fill="none" xmlns="http://www.w3.org/2000/svg">
<path d="M16.5 8.625V17.625C16.5 18.0228 16.342 18.4044 16.0607 18.6857C15.7794 18.967 15.3978 19.125 15 19.125H4.5C4.00754 19.125 3.51991 19.028 3.06494 18.8395C2.60997 18.6511 2.19657 18.3749 1.84835 18.0267C1.14509 17.3234 0.75 16.3696 0.75 15.375V6.375C0.75 5.97718 0.908035 5.59564 1.18934 5.31434C1.47064 5.03304 1.85218 4.875 2.25 4.875H12.75C13.7446 4.875 14.6984 5.27009 15.4017 5.97335C16.1049 6.67661 16.5 7.63044 16.5 8.625ZM22.875 6.85312C22.762 6.78442 22.6323 6.74808 22.5 6.74808C22.3677 6.74808 22.238 6.78442 22.125 6.85312L18.375 8.99063C18.26 9.05702 18.1647 9.15276 18.0988 9.26806C18.0329 9.38336 17.9988 9.51408 18 9.64688V14.3531C17.9988 14.4859 18.0329 14.6166 18.0988 14.7319C18.1647 14.8472 18.26 14.943 18.375 15.0094L22.125 17.1469C22.2393 17.2124 22.3683 17.2479 22.5 17.25C22.6319 17.2492 22.7612 17.2136 22.875 17.1469C22.9899 17.0828 23.0854 16.9888 23.1514 16.875C23.2174 16.7611 23.2515 16.6316 23.25 16.5V7.5C23.2515 7.36841 23.2174 7.23886 23.1514 7.12501C23.0854 7.01116 22.9899 6.91723 22.875 6.85312Z" fill="#7B61FF"/>
</svg>
