<svg width="22" height="22" viewBox="0 0 22 22" fill="none" xmlns="http://www.w3.org/2000/svg">
<path d="M13.75 6.87501L6.59141 14.1539C6.35442 14.4155 6.22708 14.7582 6.23577 15.111C6.24446 15.4639 6.3885 15.7999 6.63808 16.0494C6.88766 16.299 7.22366 16.4431 7.57651 16.4517C7.92936 16.4604 8.27204 16.3331 8.5336 16.0961L17.0672 7.44219C17.5412 6.91908 17.7959 6.23372 17.7785 5.52802C17.7611 4.82231 17.473 4.15032 16.9739 3.65116C16.4747 3.152 15.8027 2.86391 15.097 2.84654C14.3913 2.82916 13.7059 3.08383 13.1828 3.55782L4.64923 12.2117C3.87658 12.9844 3.4425 14.0323 3.4425 15.125C3.4425 16.2177 3.87658 17.2656 4.64923 18.0383C5.42188 18.8109 6.46981 19.245 7.56251 19.245C8.6552 19.245 9.70314 18.8109 10.4758 18.0383L17.5313 11" stroke="#504B4B" stroke-width="1.2" stroke-linecap="round" stroke-linejoin="round"/>
</svg>
