<svg width="24" height="24" viewBox="0 0 24 24" fill="none" xmlns="http://www.w3.org/2000/svg">
<path d="M15.75 9.375C15.75 9.67337 15.6315 9.95952 15.4205 10.1705C15.2095 10.3815 14.9234 10.5 14.625 10.5C14.3266 10.5 14.0405 10.3815 13.8295 10.1705C13.6185 9.95952 13.5 9.67337 13.5 9.375C13.5 9.07663 13.6185 8.79048 13.8295 8.5795C14.0405 8.36853 14.3266 8.25 14.625 8.25C14.9234 8.25 15.2095 8.36853 15.4205 8.5795C15.6315 8.79048 15.75 9.07663 15.75 9.375ZM21.75 5.25V17.25V18.75C21.75 19.1478 21.592 19.5294 21.3107 19.8107C21.0294 20.092 20.6478 20.25 20.25 20.25H3.75C3.35218 20.25 2.97064 20.092 2.68934 19.8107C2.40804 19.5294 2.25 19.1478 2.25 18.75V15.75V5.25C2.25 4.85218 2.40804 4.47064 2.68934 4.18934C2.97064 3.90804 3.35218 3.75 3.75 3.75H20.25C20.6478 3.75 21.0294 3.90804 21.3107 4.18934C21.592 4.47064 21.75 4.85218 21.75 5.25ZM20.25 15.4406V5.25H3.75V13.9406L7.19062 10.5C7.47302 10.2217 7.85355 10.0658 8.25 10.0658C8.64645 10.0658 9.02698 10.2217 9.30938 10.5L13.5 14.6906L15.4406 12.75C15.723 12.4717 16.1036 12.3158 16.5 12.3158C16.8964 12.3158 17.277 12.4717 17.5594 12.75L20.25 15.4406Z" fill="#ED8031"/>
</svg>
