<svg width="20" height="20" viewBox="0 0 20 20" fill="none" xmlns="http://www.w3.org/2000/svg">
<path d="M2.25602 14.5938C1.13935 12.7098 0.748749 10.483 1.15755 8.33146C1.56636 6.17989 2.74645 4.25153 4.47628 2.90838C6.20611 1.56523 8.36672 0.899675 10.5525 1.03666C12.7383 1.17364 14.7989 2.10374 16.3475 3.65235C17.8961 5.20095 18.8262 7.26157 18.9632 9.44734C19.1002 11.6331 18.4346 13.7937 17.0915 15.5236C15.7483 17.2534 13.8199 18.4335 11.6684 18.8423C9.51681 19.2511 7.29001 18.8605 5.40602 17.7438V17.7438L2.29352 18.6251C2.16599 18.6624 2.03079 18.6647 1.90207 18.6317C1.77335 18.5988 1.65586 18.5319 1.56191 18.4379C1.46796 18.344 1.40101 18.2265 1.36809 18.0978C1.33516 17.969 1.33747 17.8338 1.37477 17.7063L2.25602 14.5938Z" stroke="#504B4B" stroke-width="1.2" stroke-linecap="round" stroke-linejoin="round"/>
</svg>
