<svg width="14" height="14" viewBox="0 0 14 14" fill="none" xmlns="http://www.w3.org/2000/svg">
<path fill-rule="evenodd" clip-rule="evenodd" d="M8.02852 6.99999L13.1711 1.85739L12.1426 0.828874L7 5.97147L1.85741 0.828874L0.828886 1.85739L5.97148 6.99999L0.828887 12.1426L1.85741 13.1711L7 8.02851L12.1426 13.1711L13.1711 12.1426L8.02852 6.99999Z" fill="#9B9B9B"/>
<path d="M13.1711 1.85739L13.5247 2.21095L13.8782 1.85739L13.5247 1.50384L13.1711 1.85739ZM8.02852 6.99999L7.67497 6.64643L7.32141 6.99999L7.67497 7.35354L8.02852 6.99999ZM12.1426 0.828874L12.4961 0.475321L12.1426 0.121767L11.789 0.475321L12.1426 0.828874ZM7 5.97147L6.64645 6.32502L7 6.67858L7.35355 6.32502L7 5.97147ZM1.85741 0.828874L2.21096 0.475321L1.85741 0.121767L1.50385 0.475321L1.85741 0.828874ZM0.828886 1.85739L0.475333 1.50384L0.121779 1.85739L0.475333 2.21095L0.828886 1.85739ZM5.97148 6.99999L6.32503 7.35354L6.67859 6.99999L6.32503 6.64643L5.97148 6.99999ZM0.828887 12.1426L0.475333 11.789L0.12178 12.1426L0.475333 12.4961L0.828887 12.1426ZM1.85741 13.1711L1.50385 13.5247L1.85741 13.8782L2.21096 13.5247L1.85741 13.1711ZM7 8.02851L7.35355 7.67495L7 7.3214L6.64645 7.67495L7 8.02851ZM12.1426 13.1711L11.789 13.5247L12.1426 13.8782L12.4961 13.5247L12.1426 13.1711ZM13.1711 12.1426L13.5247 12.4961L13.8782 12.1426L13.5247 11.789L13.1711 12.1426ZM12.8176 1.50384L7.67497 6.64643L8.38207 7.35354L13.5247 2.21095L12.8176 1.50384ZM11.789 1.18243L12.8176 2.21095L13.5247 1.50384L12.4961 0.475321L11.789 1.18243ZM7.35355 6.32502L12.4961 1.18243L11.789 0.475321L6.64645 5.61792L7.35355 6.32502ZM1.50385 1.18243L6.64645 6.32502L7.35355 5.61792L2.21096 0.475321L1.50385 1.18243ZM1.18244 2.21095L2.21096 1.18243L1.50385 0.475321L0.475333 1.50384L1.18244 2.21095ZM6.32503 6.64643L1.18244 1.50384L0.475333 2.21095L5.61793 7.35354L6.32503 6.64643ZM1.18244 12.4961L6.32503 7.35354L5.61793 6.64643L0.475333 11.789L1.18244 12.4961ZM2.21096 12.8175L1.18244 11.789L0.475333 12.4961L1.50385 13.5247L2.21096 12.8175ZM6.64645 7.67495L1.50385 12.8175L2.21096 13.5247L7.35355 8.38206L6.64645 7.67495ZM12.4961 12.8175L7.35355 7.67495L6.64645 8.38206L11.789 13.5247L12.4961 12.8175ZM12.8176 11.789L11.789 12.8175L12.4961 13.5247L13.5247 12.4961L12.8176 11.789ZM7.67497 7.35354L12.8176 12.4961L13.5247 11.789L8.38207 6.64643L7.67497 7.35354Z" fill="#9B9B9B"/>
</svg>
