<svg width="16" height="12" viewBox="0 0 16 12" fill="none" xmlns="http://www.w3.org/2000/svg">
<path d="M10.7272 4.09091C10.7272 4.3079 10.641 4.51601 10.4876 4.66945C10.3342 4.82289 10.1261 4.90909 9.90906 4.90909C9.69206 4.90909 9.48396 4.82289 9.33052 4.66945C9.17708 4.51601 9.09088 4.3079 9.09088 4.09091C9.09088 3.87391 9.17708 3.66581 9.33052 3.51237C9.48396 3.35893 9.69206 3.27273 9.90906 3.27273C10.1261 3.27273 10.3342 3.35893 10.4876 3.51237C10.641 3.66581 10.7272 3.87391 10.7272 4.09091ZM15.0909 1.09091V9.81818V10.9091C15.0909 11.1984 14.9759 11.4759 14.7714 11.6805C14.5668 11.8851 14.2893 12 14 12H1.99997C1.71064 12 1.43316 11.8851 1.22858 11.6805C1.02399 11.4759 0.909058 11.1984 0.909058 10.9091V8.72727V1.09091C0.909058 0.801582 1.02399 0.524105 1.22858 0.31952C1.43316 0.114935 1.71064 0 1.99997 0H14C14.2893 0 14.5668 0.114935 14.7714 0.31952C14.9759 0.524105 15.0909 0.801582 15.0909 1.09091ZM14 8.50227V1.09091H1.99997V7.41136L4.50224 4.90909C4.70762 4.70673 4.98437 4.59329 5.27269 4.59329C5.56102 4.59329 5.83777 4.70673 6.04315 4.90909L9.09088 7.95682L10.5022 6.54545C10.7076 6.34309 10.9844 6.22965 11.2727 6.22965C11.561 6.22965 11.8378 6.34309 12.0431 6.54545L14 8.50227Z" fill="white"/>
</svg>
