<svg width="22" height="18" viewBox="0 0 22 18" fill="none" xmlns="http://www.w3.org/2000/svg">
<path d="M11.534 16.8662L19.1278 9.27249C20.9934 7.39749 21.2653 4.33187 19.5028 2.37249C19.0607 1.87872 18.5227 1.48026 17.9215 1.20145C17.3203 0.922636 16.6685 0.769334 16.0061 0.750908C15.3436 0.732482 14.6844 0.849319 14.0686 1.09428C13.4528 1.33924 12.8934 1.70718 12.4246 2.17562L10.9996 3.60999L9.77152 2.37249C7.89652 0.506868 4.83089 0.234993 2.87152 1.99749C2.37774 2.43951 1.97928 2.97756 1.70047 3.57877C1.42166 4.17999 1.26836 4.83173 1.24993 5.49419C1.23151 6.15665 1.34834 6.81591 1.5933 7.43169C1.83826 8.04747 2.2062 8.60684 2.67464 9.07562L10.4653 16.8662C10.6075 17.0071 10.7995 17.0861 10.9996 17.0861C11.1998 17.0861 11.3918 17.0071 11.534 16.8662Z" stroke="#504B4B" stroke-width="1.2" stroke-linecap="round" stroke-linejoin="round"/>
</svg>
