<svg width="24" height="24" viewBox="0 0 24 24" fill="none" xmlns="http://www.w3.org/2000/svg">
<path d="M12.534 19.8662L20.1278 12.2725C21.9934 10.3975 22.2653 7.33187 20.5028 5.37249C20.0607 4.87872 19.5227 4.48026 18.9215 4.20145C18.3203 3.92264 17.6685 3.76933 17.0061 3.75091C16.3436 3.73248 15.6844 3.84932 15.0686 4.09428C14.4528 4.33924 13.8934 4.70718 13.4246 5.17562L11.9996 6.60999L10.7715 5.37249C8.89652 3.50687 5.83089 3.23499 3.87152 4.99749C3.37774 5.43951 2.97928 5.97756 2.70047 6.57877C2.42166 7.17999 2.26836 7.83173 2.24993 8.49419C2.23151 9.15665 2.34834 9.81591 2.5933 10.4317C2.83826 11.0475 3.2062 11.6068 3.67464 12.0756L11.4653 19.8662C11.6075 20.0071 11.7995 20.0861 11.9996 20.0861C12.1998 20.0861 12.3918 20.0071 12.534 19.8662Z" fill="#FB1609" stroke="#FB1609" stroke-width="1.2" stroke-linecap="round" stroke-linejoin="round"/>
</svg>
