<svg width="24" height="21" viewBox="0 0 24 21" fill="none" xmlns="http://www.w3.org/2000/svg">
<path d="M0.413574 15.3738C0.413574 17.389 1.47768 18.4437 3.51172 18.4437H13.3335C12.9851 17.8787 12.7402 17.2384 12.6272 16.5698H3.5023C2.7207 16.5698 2.28753 16.1648 2.28753 15.3362V6.67266C2.28753 5.84398 2.7207 5.43905 3.5023 5.43905H16.4881C17.2697 5.43905 17.7029 5.84398 17.7029 6.67266V9.19638C18.0325 9.13988 18.3433 9.11163 18.654 9.11163C18.9648 9.11163 19.2755 9.13988 19.5863 9.18696V3.91352C19.5863 1.89832 18.5222 0.843628 16.4787 0.843628H3.51172C1.47768 0.843628 0.413574 1.8889 0.413574 3.91352V15.3738ZM5.11258 8.8197H14.8967C15.2357 8.8197 15.49 8.55603 15.49 8.20761C15.49 7.87802 15.2357 7.62376 14.8967 7.62376H5.11258C4.76416 7.62376 4.5099 7.87802 4.5099 8.20761C4.5099 8.55603 4.76416 8.8197 5.11258 8.8197ZM5.11258 11.5977H13.7102C14.0398 11.1457 14.4164 10.7502 14.859 10.4017H5.11258C4.76416 10.4017 4.5099 10.6748 4.5099 11.0138C4.5099 11.3434 4.76416 11.5977 5.11258 11.5977ZM18.654 20.1576C21.2907 20.1576 23.5131 17.9541 23.5131 15.2985C23.5131 12.6429 21.319 10.4488 18.654 10.4488C15.9985 10.4488 13.8043 12.6429 13.8043 15.2985C13.8043 17.9635 15.9985 20.1576 18.654 20.1576ZM15.5747 15.2985C15.5747 14.9124 15.8384 14.6582 16.2245 14.6582H18.0043V12.8784C18.0043 12.4923 18.2679 12.2286 18.654 12.2286C19.0495 12.2286 19.3038 12.4923 19.3038 12.8784V14.6582H21.0836C21.4697 14.6582 21.7333 14.9124 21.7333 15.2985C21.7333 15.694 21.4697 15.9483 21.0836 15.9483H19.3038V17.7375C19.3038 18.1236 19.0495 18.3778 18.654 18.3778C18.2679 18.3778 18.0043 18.1236 18.0043 17.7375V15.9483H16.2245C15.8384 15.9483 15.5841 15.694 15.5747 15.2985ZM5.11258 14.3756H11.29C11.629 14.3756 11.8833 14.1214 11.8833 13.7918C11.8833 13.4528 11.629 13.1891 11.29 13.1891H5.11258C4.76416 13.1891 4.5099 13.4528 4.5099 13.7918C4.5099 14.1214 4.76416 14.3756 5.11258 14.3756Z" fill="white"/>
</svg>
