<svg width="48" height="48" viewBox="0 0 48 48" fill="none" xmlns="http://www.w3.org/2000/svg">
<path d="M1.71432 12H10.2857V1.71432C10.2857 0.767511 11.0532 0 12 0H46.2857C47.2325 0 48 0.767511 48 1.71432V41.1428C48 44.93 44.93 48 41.1428 48H6.85717C3.07004 48 0 44.93 0 41.1428V13.7142C0 12.7675 0.767513 12 1.71432 12ZM34.2858 8.57139H24C23.0532 8.57139 22.2857 9.3389 22.2857 10.2857C22.2857 11.2325 23.0532 12 24 12H34.2858C35.2326 12 36.0001 11.2325 36.0001 10.2857C36.0001 9.3389 35.2325 8.57139 34.2858 8.57139ZM18.8572 41.1428H39.4286C40.3754 41.1428 41.1429 40.3753 41.1429 39.4285C41.1429 38.4817 40.3754 37.7142 39.4286 37.7142H18.8572C17.9104 37.7142 17.1429 38.4817 17.1429 39.4285C17.1429 40.3753 17.9104 41.1428 18.8572 41.1428ZM18.8572 34.2857H39.4286C40.3754 34.2857 41.1429 33.5181 41.1429 32.5713C41.1429 31.6245 40.3754 30.857 39.4286 30.857H18.8572C17.9104 30.857 17.1429 31.6245 17.1429 32.5713C17.1429 33.5181 17.9104 34.2857 18.8572 34.2857ZM18.8572 27.4286H39.4286C40.3754 27.4286 41.1429 26.6611 41.1429 25.7143C41.1429 24.7675 40.3754 24 39.4286 24H18.8572C17.9104 24 17.1429 24.7675 17.1429 25.7143C17.1429 26.6611 17.9104 27.4286 18.8572 27.4286ZM18.8572 20.5714H39.4286C40.3754 20.5714 41.1429 19.8039 41.1429 18.8571C41.1429 17.9103 40.3754 17.1428 39.4286 17.1428H18.8572C17.9104 17.1428 17.1429 17.9103 17.1429 18.8571C17.1429 19.8039 17.9104 20.5714 18.8572 20.5714ZM3.42863 41.1428C3.42863 43.0363 4.96366 44.5714 6.85717 44.5714C8.75069 44.5714 10.2857 43.0363 10.2857 41.1428V15.4286H3.42854V41.1428H3.42863Z" fill="black"/>
</svg>
