<svg width="25" height="24" viewBox="0 0 25 24" fill="none" xmlns="http://www.w3.org/2000/svg">
<path d="M4.2334 4.81738C4.09017 4.81738 3.96973 4.84668 3.87207 4.90527C3.77441 4.96387 3.69629 5.04199 3.6377 5.13965C3.58561 5.23079 3.54655 5.33171 3.52051 5.44238C3.49447 5.57259 3.47493 5.74837 3.46191 5.96973C3.4554 6.19108 3.45215 6.43848 3.45215 6.71191C3.45215 8.90592 3.93066 10.4977 4.8877 11.4873C5.84473 12.4769 7.39746 12.9717 9.5459 12.9717H16.2842L18.5303 12.8643L15.5811 15.5889L13.2666 17.9424C13.195 18.0075 13.1396 18.0889 13.1006 18.1865C13.068 18.2777 13.0518 18.3721 13.0518 18.4697C13.0518 18.6781 13.1201 18.8506 13.2568 18.9873C13.4001 19.1175 13.5758 19.1826 13.7842 19.1826C13.9925 19.1826 14.1846 19.098 14.3604 18.9287L20.4932 12.7959C20.6689 12.6331 20.7568 12.4443 20.7568 12.2295C20.7568 12.0212 20.6689 11.8324 20.4932 11.6631L14.3311 5.50098C14.1748 5.34473 13.9925 5.2666 13.7842 5.2666C13.5758 5.2666 13.4001 5.33496 13.2568 5.47168C13.1201 5.6084 13.0518 5.78092 13.0518 5.98926C13.0518 6.09342 13.068 6.19108 13.1006 6.28223C13.1396 6.37337 13.195 6.45475 13.2666 6.52637L15.5811 8.87988L18.54 11.6045L16.2842 11.4873H9.62402C8.4847 11.4873 7.57324 11.3213 6.88965 10.9893C6.20605 10.6572 5.71126 10.1364 5.40527 9.42676C5.10579 8.71712 4.95605 7.78288 4.95605 6.62402C4.95605 6.39616 4.95931 6.19759 4.96582 6.02832C4.97884 5.85905 4.98535 5.7028 4.98535 5.55957C4.98535 5.33822 4.91374 5.15918 4.77051 5.02246C4.63379 4.88574 4.45475 4.81738 4.2334 4.81738Z" fill="#484F67"/>
</svg>
